<svg xmlns="http://www.w3.org/2000/svg" version="1.1" xmlns:xlink="http://www.w3.org/1999/xlink" xmlns:svgjs="http://svgjs.dev/svgjs" width="3000" height="800" preserveAspectRatio="none" viewBox="0 0 3000 800"><g mask="url(&quot;#SvgjsMask1024&quot;)" fill="none"><path d="M3150 800L0 800 L0 574.03Q69.63 393.66, 250 463.3Q342.46 405.76, 400 498.23Q484.39 432.62, 550 517.01Q640.6 457.61, 700 548.2Q837.41 435.62, 950 573.03Q978.74 451.77, 1100 480.51Q1164.61 395.12, 1250 459.73Q1295.88 355.62, 1400 401.5Q1591.74 343.24, 1650 534.98Q1794.66 429.64, 1900 574.31Q1988.83 413.14, 2150 501.97Q2201.82 403.8, 2300 455.62Q2389.49 395.11, 2450 484.59Q2516.47 401.06, 2600 467.54Q2713.72 331.26, 2850 444.98Q2963.15 408.13, 3000 521.28Q3064.13 435.4, 3150 499.53z" fill="rgba(232, 84, 98, 1)"></path><path d="M3050 800L0 800 L0 581.63Q186.47 518.11, 250 704.58Q256.03 560.62, 400 566.65Q458.37 475.01, 550 533.38Q734.97 468.35, 800 653.32Q827.63 530.95, 950 558.57Q1069.81 428.38, 1200 548.19Q1369.58 467.77, 1450 637.35Q1583.43 520.78, 1700 654.21Q1781.52 585.73, 1850 667.25Q1900.2 567.45, 2000 617.65Q2136.24 503.89, 2250 640.14Q2306.6 546.74, 2400 603.34Q2517.86 471.21, 2650 589.07Q2839.01 528.08, 2900 717.09Q2904.09 571.17, 3050 575.26z" fill="rgba(241, 118, 38, 1)"></path><path d="M3050 800L0 800 L0 760.77Q104.58 715.35, 150 819.92Q261.91 681.83, 400 793.74Q500.07 643.81, 650 743.87Q769.94 613.81, 900 733.74Q985.97 669.71, 1050 755.68Q1156.93 612.61, 1300 719.53Q1402.44 571.97, 1550 674.42Q1742.08 616.5, 1800 808.58Q1876.77 635.36, 2050 712.13Q2181.39 593.52, 2300 724.91Q2463.95 638.86, 2550 802.8Q2617.02 619.82, 2800 686.83Q2946.88 583.71, 3050 730.59z" fill="rgba(255, 255, 255, 1)"></path></g><defs><mask id="SvgjsMask1024"><rect width="3000" height="800" fill="#ffffff"></rect></mask></defs></svg>