<svg xmlns="http://www.w3.org/2000/svg" version="1.1" xmlns:xlink="http://www.w3.org/1999/xlink" xmlns:svgjs="http://svgjs.dev/svgjs" width="2000" height="560" preserveAspectRatio="none" viewBox="0 0 2000 560"><g mask="url(&quot;#SvgjsMask1036&quot;)" fill="none"><path d="M0 236.1L10 167.78L20 205.79L30 170.7L40 145.6L50 92.55L60 87.5L70 48.6L80 21.65L90 37.27L100 90.13L110 122.44L120 126.98L130 185.17L140 217.06L150 284.73L160 287.99L170 255.91L180 250.26L190 218.9L200 212.93L210 199.6L220 228.42L230 199.58L240 221.65L250 206.25L260 272.72L270 240.31L280 185.19L290 152.08L300 90.63L310 155.3L320 101.33L330 95.08L340 38.63L350 24.79L360 79.2L370 45.88L380 51.91L390 4.44L400 46.31L410 20.03L420 70.01L430 2.39L440 40.16L450 75.16L460 70.5L470 41.21L480 8.7L490 38.97L500 91.41L510 89.43L520 158.22L530 88.87L540 34.37L550 51.33L560 24.89L570 45.69L580 84.71L590 20.09L600 88.61L610 110.62L620 129.72L630 135.35L640 112.69L650 109.76L660 133.73L670 190.2L680 170.29L690 206.89L700 195.26L710 236.23L720 278.52L730 348L740 374.42L750 325.41L760 318.86L770 291.08L780 352.07L790 377.8L800 337.3L810 336.47L820 386.44L830 398.49L840 391.11L850 409.56L860 465.81L870 518.55L880 534.99L890 518.24L900 480.97L910 429.65L920 480.06L930 505.52L940 555.34L950 519.01L960 533.46L970 535.26L980 555.15L990 558.29L1000 530.16L1010 468.75L1020 448.22L1030 442.75L1040 449.62L1050 493.79L1060 459.43L1070 401.76L1080 333.32L1090 290.77L1100 254.68L1110 270.02L1120 210.3L1130 183.89L1140 211.4L1150 200.7L1160 228.27L1170 255.8L1180 226.42L1190 260.37L1200 265.33L1210 316.21L1220 311.55L1230 278.37L1240 215.17L1250 285.07L1260 257.95L1270 313.61L1280 289.62L1290 332.95L1300 290.01L1310 223.98L1320 196.59L1330 152.1L1340 106.61L1350 59.69L1360 15.49L1370 0.81L1380 45.45L1390 68.81L1400 55.2L1410 34.28L1420 74.6L1430 18.91L1440 74.87L1450 12.22L1460 21.35L1470 80.76L1480 70.3L1490 60.03L1500 21.42L1510 57.52L1520 116.12L1530 60.24L1540 23.64L1550 73.71L1560 26.82L1570 45.04L1580 90.37L1590 129.02L1600 110.25L1610 169L1620 205.6L1630 270.93L1640 236.69L1650 266.61L1660 250.69L1670 224.82L1680 291.62L1690 235.06L1700 296.02L1710 339.22L1720 374.46L1730 436.29L1740 439.14L1750 411.76L1760 378.84L1770 321.74L1780 340.47L1790 274.56L1800 207L1810 236.71L1820 269.39L1830 222.22L1840 195.06L1850 204.94L1860 226.06L1870 172.11L1880 222.76L1890 204L1900 266.62L1910 269.76L1920 332.02L1930 323.77L1940 348.66L1950 325.5L1960 303.58L1970 304.67L1980 238.67L1990 307.03L2000 266.03" stroke="rgba(241, 118, 38, 1)" stroke-width="2"></path><path d="M0 236.1L10 167.78L20 205.79L30 170.7L40 145.6L50 92.55L60 87.5L70 48.6L80 21.65L90 37.27L100 90.13L110 122.44L120 126.98L130 185.17L140 217.06L150 284.73L160 287.99L170 255.91L180 250.26L190 218.9L200 212.93L210 199.6L220 228.42L230 199.58L240 221.65L250 206.25L260 272.72L270 240.31L280 185.19L290 152.08L300 90.63L310 155.3L320 101.33L330 95.08L340 38.63L350 24.79L360 79.2L370 45.88L380 51.91L390 4.44L400 46.31L410 20.03L420 70.01L430 2.39L440 40.16L450 75.16L460 70.5L470 41.21L480 8.7L490 38.97L500 91.41L510 89.43L520 158.22L530 88.87L540 34.37L550 51.33L560 24.89L570 45.69L580 84.71L590 20.09L600 88.61L610 110.62L620 129.72L630 135.35L640 112.69L650 109.76L660 133.73L670 190.2L680 170.29L690 206.89L700 195.26L710 236.23L720 278.52L730 348L740 374.42L750 325.41L760 318.86L770 291.08L780 352.07L790 377.8L800 337.3L810 336.47L820 386.44L830 398.49L840 391.11L850 409.56L860 465.81L870 518.55L880 534.99L890 518.24L900 480.97L910 429.65L920 480.06L930 505.52L940 555.34L950 519.01L960 533.46L970 535.26L980 555.15L990 558.29L1000 530.16L1010 468.75L1020 448.22L1030 442.75L1040 449.62L1050 493.79L1060 459.43L1070 401.76L1080 333.32L1090 290.77L1100 254.68L1110 270.02L1120 210.3L1130 183.89L1140 211.4L1150 200.7L1160 228.27L1170 255.8L1180 226.42L1190 260.37L1200 265.33L1210 316.21L1220 311.55L1230 278.37L1240 215.17L1250 285.07L1260 257.95L1270 313.61L1280 289.62L1290 332.95L1300 290.01L1310 223.98L1320 196.59L1330 152.1L1340 106.61L1350 59.69L1360 15.49L1370 0.81L1380 45.45L1390 68.81L1400 55.2L1410 34.28L1420 74.6L1430 18.91L1440 74.87L1450 12.22L1460 21.35L1470 80.76L1480 70.3L1490 60.03L1500 21.42L1510 57.52L1520 116.12L1530 60.24L1540 23.64L1550 73.71L1560 26.82L1570 45.04L1580 90.37L1590 129.02L1600 110.25L1610 169L1620 205.6L1630 270.93L1640 236.69L1650 266.61L1660 250.69L1670 224.82L1680 291.62L1690 235.06L1700 296.02L1710 339.22L1720 374.46L1730 436.29L1740 439.14L1750 411.76L1760 378.84L1770 321.74L1780 340.47L1790 274.56L1800 207L1810 236.71L1820 269.39L1830 222.22L1840 195.06L1850 204.94L1860 226.06L1870 172.11L1880 222.76L1890 204L1900 266.62L1910 269.76L1920 332.02L1930 323.77L1940 348.66L1950 325.5L1960 303.58L1970 304.67L1980 238.67L1990 307.03L2000 266.03L2000 560L0 560z" fill="url(&quot;#SvgjsLinearGradient1037&quot;)"></path></g><defs><mask id="SvgjsMask1036"><rect width="2000" height="560" fill="#ffffff"></rect></mask><linearGradient x1="50%" y1="0%" x2="50%" y2="100%" id="SvgjsLinearGradient1037"><stop stop-opacity="0.65" stop-color="rgba(241, 118, 38, 1)" offset="0"></stop><stop stop-opacity="0" stop-color="#ffffff" offset="0.8"></stop></linearGradient></defs></svg>